<svg width="24" height="24" viewBox="0 0 24 24" fill="none" xmlns="http://www.w3.org/2000/svg">
<rect x="2" y="2" width="20" height="20" rx="5" stroke="currentColor" stroke-width="2"/>
<path d="M16 11.37C16.1234 12.0223 16.1234 12.6977 16 13.35C15.8766 14.0023 15.6032 14.6156 15.2032 15.1406C14.8032 15.6656 14.2875 16.0875 13.6984 16.3719C13.1094 16.6562 12.4625 16.7953 11.8102 16.7797C11.1578 16.7641 10.518 16.5938 9.94375 16.2812C9.36953 15.9688 8.875 15.5219 8.5 14.9766C8.125 14.4313 7.87891 13.8031 7.78125 13.1453C7.68359 12.4875 7.73672 11.8188 7.93594 11.1875C8.13516 10.5563 8.47578 9.98125 8.93125 9.50625C9.38672 9.03125 9.94375 8.66875 10.5641 8.44375C11.1844 8.21875 11.8484 8.1375 12.5063 8.20625C13.1641 8.275 13.7969 8.49219 14.3531 8.84062C14.9094 9.18906 15.3734 9.65938 15.7141 10.2203C16.0547 10.7813 16.2625 11.4172 16.3219 12.075" stroke="currentColor" stroke-width="2" stroke-linecap="round"/>
<circle cx="17" cy="7" r="1" stroke="currentColor" stroke-width="2"/>
</svg>
