<svg width="24" height="24" viewBox="0 0 24 24" fill="none" xmlns="http://www.w3.org/2000/svg">
<path d="M22 16.92V19.92C22 20.4804 21.5783 21.0391 20.9142 21.4142C20.2501 21.7893 19.368 22 18.44 22C13.7578 21.7296 9.31749 19.7178 5.93934 16.3397C2.56118 12.9615 0.549394 8.52122 0.279999 3.83999C0.279999 2.91199 0.490699 2.02999 0.865799 1.36599C1.2409 0.70199 1.7996 0.27999 2.36 0.27999H5.36C5.87043 0.27999 6.35914 0.52999 6.7142 0.97099C7.06926 1.41199 7.26315 2.00899 7.25 2.61999C7.25 3.22999 7.44 3.81999 7.79 4.32999C8.14 4.83999 8.63 5.23999 9.2 5.47999C9.77 5.71999 10.4 5.78999 11.01 5.67999C11.62 5.56999 12.18 5.27999 12.61 4.84999C13.04 4.41999 13.33 3.85999 13.44 3.24999C13.55 2.63999 13.48 2.00999 13.24 1.43999C13 0.86999 12.6 0.37999 12.09 0.02999C11.58 -0.32001 10.99 -0.50999 10.38 -0.50999" stroke="currentColor" stroke-width="2" stroke-linecap="round" stroke-linejoin="round"/>
</svg>
