<svg width="24" height="24" viewBox="0 0 24 24" fill="none" xmlns="http://www.w3.org/2000/svg">
<path d="M23 3C22.0414 3.375 21.0269 3.63025 20 3.75C21.0406 3.14625 21.8228 2.1985 22.1914 1.0675C21.1769 1.625 20.0614 2.02675 18.8806 2.2455C17.9053 1.275 16.5441 0.75 15.0781 0.75C12.2591 0.75 9.94734 3.06175 9.94734 5.88075C9.94734 6.2505 9.98384 6.6075 10.0536 6.94875C6.58009 6.75 3.48634 5.112 1.40284 2.607C1.00134 3.29475 0.768594 4.09425 0.768594 4.94625C0.768594 6.5625 1.69834 7.947 3.05384 8.889C2.22109 8.862 1.41659 8.64325 0.735594 8.28375V8.34375C0.735594 10.8187 2.50734 12.8685 4.84234 13.302C4.44659 13.4107 4.02659 13.4647 3.59434 13.4647C3.29384 13.4647 3.00234 13.4397 2.71834 13.383C3.33409 15.3982 5.20334 16.8607 7.42634 16.902C5.69434 18.252 3.51184 19.047 1.14059 19.047C0.756594 19.047 0.378344 19.0247 0.00859451 18.982C2.25934 20.4135 4.94734 21.25 7.83634 21.25C15.0651 21.25 19.0651 15.2475 19.0651 10.0125C19.0651 9.846 19.0606 9.6765 19.0536 9.5115C20.0836 8.772 20.9666 7.833 21.6666 6.7575C20.7369 7.1625 19.7391 7.4415 18.6936 7.5765C19.7619 6.9405 20.5776 5.937 21.0016 4.7475" stroke="currentColor" stroke-width="2" stroke-linecap="round" stroke-linejoin="round"/>
</svg>
